<svg width="100" height="100" viewBox="0 0 100 100" fill="none" xmlns="http://www.w3.org/2000/svg">
<rect width="100" height="100" rx="16" fill="#2E6FF2"/>
<path d="M33.7661 41.0007C33.7661 43.7273 31.7039 45.7838 28.9068 45.7838C26.1097 45.7838 24 43.7273 24 41.0007C24 38.2741 26.0623 36.2175 28.9068 36.2175C31.7513 36.2175 33.7661 38.2741 33.7661 41.0007ZM33.7661 59.9993C33.7661 62.7259 31.7039 64.7824 28.9068 64.7824C26.1097 64.7824 24 62.7259 24 59.9993C24 57.2726 26.0623 55.2161 28.9068 55.2161C31.7513 55.2161 33.7661 57.2726 33.7661 59.9993Z" fill="white"/>
<path d="M65.646 70L57.89 57.7025H50.774V70H41.8375V31H57.9374C68.097 31 74.0373 36.2638 74.0373 44.3512C74.0373 49.7121 71.4346 53.8251 66.7222 55.9787L76 70H65.6413H65.646ZM50.774 49.9986H57.5487C62.2611 49.9986 65.1103 48.0345 65.1103 44.3512C65.1103 40.668 62.2611 38.7039 57.5487 38.7039H50.774V49.9986Z" fill="white"/>
</svg>
