<svg width="20" height="20" viewBox="0 0 20 20" fill="none" xmlns="http://www.w3.org/2000/svg">
<path fill-rule="evenodd" clip-rule="evenodd" d="M12.7116 2.97073C13.7132 3.02666 14.6597 3.49002 15.358 4.23912C16.0058 4.93401 16.5335 5.79362 16.5644 6.93309C16.5807 7.53102 16.5009 8.03709 16.3016 8.50776C16.1059 8.96976 15.8151 9.34847 15.4893 9.71252C15.4817 9.72092 15.474 9.72915 15.4661 9.7372L13.679 11.5609C13.6748 11.5652 13.6706 11.5695 13.6662 11.5737C13.2179 12.0097 12.808 12.255 12.3157 12.4255C11.8002 12.6041 11.2502 12.6604 10.7044 12.5941C10.1588 12.5278 9.63133 12.3407 9.15635 12.0498C8.68148 11.7591 8.26857 11.3706 7.94332 10.9122C7.70364 10.5744 7.7832 10.1062 8.12103 9.86653C8.45886 9.62685 8.92702 9.70641 9.1667 10.0442C9.37715 10.3409 9.64151 10.5881 9.93958 10.7706C10.2375 10.953 10.5605 11.0656 10.8854 11.1051C11.2099 11.1445 11.5298 11.1103 11.8247 11.0082C12.0981 10.9135 12.3195 10.7898 12.6143 10.5044L14.3826 8.69972C14.6578 8.39106 14.8202 8.15933 14.9204 7.92276C15.0182 7.69171 15.0768 7.4078 15.065 6.97376C15.0474 6.32644 14.762 5.7995 14.2608 5.26193C13.8102 4.77856 13.22 4.50146 12.628 4.4684C12.041 4.43563 11.4882 4.64353 11.0791 5.04368L10.0588 6.07848C9.76796 6.37343 9.2931 6.37677 8.99815 6.08595C8.7032 5.79513 8.69986 5.32026 8.99068 5.02532L10.0154 3.98607L10.0236 3.97788C10.7384 3.27494 11.7069 2.91463 12.7116 2.97073Z" fill="#8D9299"/>
<path fill-rule="evenodd" clip-rule="evenodd" d="M6.90896 16.6499C5.90737 16.5939 4.96087 16.1306 4.26256 15.3815C3.61478 14.6866 3.08707 13.827 3.05616 12.6875C3.03995 12.0896 3.11968 11.5835 3.31902 11.1128C3.51469 10.6508 3.80547 10.2721 4.13135 9.90809C4.13887 9.89969 4.14658 9.89146 4.15447 9.8834L5.94156 8.05966C5.94577 8.05536 5.95004 8.05111 5.95436 8.04691C6.40269 7.61091 6.81259 7.36562 7.30489 7.19508C7.82038 7.01651 8.3704 6.96016 8.91625 7.02652C9.46179 7.09284 9.98927 7.27995 10.4643 7.57076C10.9391 7.86149 11.352 8.24998 11.6773 8.70841C11.917 9.04624 11.8374 9.5144 11.4996 9.75408C11.1617 9.99376 10.6936 9.9142 10.4539 9.57637C10.2435 9.27974 9.97909 9.03252 9.68102 8.85003C9.38308 8.66762 9.06006 8.55504 8.73523 8.51555C8.4107 8.4761 8.09082 8.51028 7.79588 8.61245C7.52249 8.70715 7.3011 8.83084 7.00633 9.11624L5.23795 10.9209C4.96281 11.2295 4.80044 11.4613 4.70024 11.6978C4.60239 11.9289 4.54384 12.2128 4.55561 12.6468C4.57317 13.2942 4.85864 13.8211 5.35977 14.3587C5.81036 14.842 6.40059 15.1191 6.99259 15.1522C7.57957 15.185 8.13245 14.9771 8.54149 14.5769L9.56182 13.5421C9.85264 13.2472 10.3275 13.2438 10.6225 13.5347C10.9174 13.8255 10.9207 14.3003 10.6299 14.5953L9.60521 15.6345L9.59701 15.6427C8.88216 16.3457 7.91373 16.706 6.90896 16.6499Z" fill="#8D9299"/>
</svg>
