<svg width="24" height="24" viewBox="0 0 24 24" fill="none" xmlns="http://www.w3.org/2000/svg">
<g id="icon-Image">
<g id="Group 47">
<path id="Rectangle 1 (Stroke)" fill-rule="evenodd" clip-rule="evenodd" d="M1.5 7.2C1.5 4.05198 4.05198 1.5 7.2 1.5H16.8C19.948 1.5 22.5 4.05198 22.5 7.2V16.8C22.5 19.948 19.948 22.5 16.8 22.5H7.2C4.05198 22.5 1.5 19.948 1.5 16.8V7.2ZM7.2 3.3C5.04609 3.3 3.3 5.04609 3.3 7.2V16.8C3.3 18.9539 5.04609 20.7 7.2 20.7H16.8C18.9539 20.7 20.7 18.9539 20.7 16.8V7.2C20.7 5.04609 18.9539 3.3 16.8 3.3H7.2Z" fill="#F3F5FA"/>
<path id="Ellipse 36 (Stroke)" fill-rule="evenodd" clip-rule="evenodd" d="M8.09998 6.90001C7.43723 6.90001 6.89998 7.43726 6.89998 8.10001C6.89998 8.76275 7.43723 9.30001 8.09998 9.30001C8.76272 9.30001 9.29998 8.76275 9.29998 8.10001C9.29998 7.43726 8.76272 6.90001 8.09998 6.90001ZM5.09998 8.10001C5.09998 6.44315 6.44312 5.10001 8.09998 5.10001C9.75683 5.10001 11.1 6.44315 11.1 8.10001C11.1 9.75686 9.75683 11.1 8.09998 11.1C6.44312 11.1 5.09998 9.75686 5.09998 8.10001Z" fill="#F3F5FA"/>
<path id="Vector 1 (Stroke)" fill-rule="evenodd" clip-rule="evenodd" d="M18.0198 12.5655C17.4098 11.8029 16.2452 11.8174 15.6543 12.5949L13.1419 15.9007C12.1096 17.2589 10.2123 17.6065 8.76558 16.7023L7.44203 15.8751C6.84972 15.5049 6.08028 15.5925 5.58637 16.0864L3.0364 18.6364L1.76361 17.3636L4.31358 14.8136C5.40017 13.7271 7.09294 13.5343 8.39603 14.3487L9.71958 15.1759C10.3772 15.5869 11.2396 15.4289 11.7088 14.8115L14.2212 11.5058C15.5212 9.7952 18.0832 9.76334 19.4254 11.4411L22.3028 15.0378L20.8972 16.1622L18.0198 12.5655Z" fill="#F3F5FA"/>
</g>
</g>
</svg>
