<svg width="16" height="16" viewBox="0 0 16 16" fill="none" xmlns="http://www.w3.org/2000/svg">
<path fill-rule="evenodd" clip-rule="evenodd" d="M1 8.00001C1 7.66864 1.26863 7.40001 1.6 7.40001L14.4 7.40001C14.7314 7.40001 15 7.66863 15 8.00001C15 8.33138 14.7314 8.60001 14.4 8.60001L1.6 8.60001C1.26863 8.60001 1 8.33138 1 8.00001Z" fill="#8D9299"/>
<path fill-rule="evenodd" clip-rule="evenodd" d="M1 4.00001C1 3.66864 1.26863 3.40001 1.6 3.40001L14.4 3.40001C14.7314 3.40001 15 3.66863 15 4.00001C15 4.33138 14.7314 4.60001 14.4 4.60001L1.6 4.60001C1.26863 4.60001 1 4.33138 1 4.00001Z" fill="#8D9299"/>
<path fill-rule="evenodd" clip-rule="evenodd" d="M1 12C1 11.6686 1.26863 11.4 1.6 11.4L14.4 11.4C14.7314 11.4 15 11.6686 15 12C15 12.3314 14.7314 12.6 14.4 12.6L1.6 12.6C1.26863 12.6 1 12.3314 1 12Z" fill="#8D9299"/>
</svg>
