<svg width="16" height="16" viewBox="0 0 16 16" fill="none" xmlns="http://www.w3.org/2000/svg">
<g id="icon-X">
<path id="Union" d="M4.42429 3.57564C4.18997 3.34132 3.81008 3.34132 3.57576 3.57564C3.34145 3.80995 3.34145 4.18985 3.57576 4.42417L7.1515 7.9999L3.57576 11.5756C3.34145 11.81 3.34145 12.1899 3.57576 12.4242C3.81007 12.6585 4.18997 12.6585 4.42429 12.4242L8.00002 8.84843L11.4954 12.3438C11.7297 12.5781 12.1096 12.5781 12.3439 12.3438C12.5782 12.1094 12.5782 11.7295 12.3439 11.4952L8.84855 7.9999L12.3439 4.50457C12.5782 4.27026 12.5782 3.89036 12.3439 3.65604C12.1096 3.42173 11.7297 3.42173 11.4954 3.65604L8.00002 7.15137L4.42429 3.57564Z" fill="#8D9299"/>
</g>
</svg>
