<svg width="20" height="20" viewBox="0 0 20 20" fill="none" xmlns="http://www.w3.org/2000/svg">
<path d="M3.5 1.75C2.5335 1.75 1.75 2.5335 1.75 3.5V16.5C1.75 17.4665 2.5335 18.25 3.5 18.25H16.5C17.4665 18.25 18.25 17.4665 18.25 16.5V3.5C18.25 2.5335 17.4665 1.75 16.5 1.75H3.5Z" fill="#2E6FF2"/>
<path fill-rule="evenodd" clip-rule="evenodd" d="M13.462 7.40918C13.7883 7.66435 13.846 8.13572 13.5908 8.462L10.0716 12.962C9.94016 13.13 9.74344 13.2341 9.53062 13.2483C9.3178 13.2625 9.10901 13.1854 8.95649 13.0363L6.47572 10.6111C6.17952 10.3216 6.17414 9.84675 6.46369 9.55056C6.75324 9.25436 7.22809 9.24898 7.52428 9.53853L9.40603 11.3781L12.4092 7.53795C12.6644 7.21166 13.1357 7.15401 13.462 7.40918Z" fill="white"/>
</svg>
