<svg width="40" height="40" viewBox="0 0 40 40" fill="none" xmlns="http://www.w3.org/2000/svg">
<path fill-rule="evenodd" clip-rule="evenodd" d="M33.5 20C33.5 20.8284 32.8284 21.5 32 21.5L11.8799 21.5L20.009 28.8901C20.622 29.4474 20.6672 30.396 20.1099 31.009C19.5526 31.622 18.604 31.6672 17.991 31.1099L6.99099 21.1099C6.67828 20.8256 6.5 20.4226 6.5 20C6.5 19.5774 6.67828 19.1744 6.99099 18.8901L17.991 8.8901C18.604 8.33284 19.5526 8.37801 20.1099 8.991C20.6672 9.60399 20.622 10.5527 20.009 11.1099L11.8799 18.5L32 18.5C32.8284 18.5 33.5 19.1716 33.5 20Z" fill="white"/>
</svg>
