<svg width="18" height="18" viewBox="0 0 18 18" fill="none" xmlns="http://www.w3.org/2000/svg">
<g id="Group 71">
<path id="Vector (Stroke)" fill-rule="evenodd" clip-rule="evenodd" d="M11.7121 1.97061C12.7137 2.02654 13.6602 2.4899 14.3585 3.23899C15.0063 3.93389 15.534 4.7935 15.5649 5.93297C15.5811 6.5309 15.5014 7.03697 15.3021 7.50764C15.1064 7.96964 14.8156 8.34835 14.4897 8.7124C14.4822 8.7208 14.4745 8.72903 14.4666 8.73708L12.6795 10.5608C12.6753 10.5651 12.6711 10.5694 12.6667 10.5736C12.2184 11.0096 11.8085 11.2549 11.3162 11.4254C10.8007 11.604 10.2507 11.6603 9.70485 11.594C9.1593 11.5276 8.63182 11.3405 8.15683 11.0497C7.68197 10.759 7.26906 10.3705 6.94381 9.91207C6.70413 9.57424 6.78369 9.10608 7.12152 8.8664C7.45935 8.62672 7.92751 8.70629 8.16719 9.04411C8.37763 9.34074 8.642 9.58796 8.94007 9.77045C9.23801 9.95287 9.56103 10.0654 9.88587 10.1049C10.2104 10.1444 10.5303 10.1102 10.8252 10.008C11.0986 9.91333 11.32 9.78964 11.6148 9.50425L13.3831 7.6996C13.6583 7.39094 13.8207 7.15921 13.9209 6.92264C14.0187 6.69159 14.0773 6.40768 14.0655 5.97363C14.0479 5.32631 13.7624 4.79937 13.2613 4.26181C12.8107 3.77844 12.2205 3.50134 11.6285 3.46828C11.0415 3.4355 10.4886 3.64341 10.0796 4.04355L9.05927 5.07836C8.76845 5.37331 8.29359 5.37665 7.99864 5.08583C7.70369 4.795 7.70035 4.32014 7.99117 4.02519L9.01588 2.98595L9.02408 2.97776C9.73893 2.27482 10.7074 1.91451 11.7121 1.97061Z" fill="#2E6FF2"/>
<path id="Vector (Stroke)_2" fill-rule="evenodd" clip-rule="evenodd" d="M5.90896 15.6497C4.90737 15.5938 3.96087 15.1305 3.26256 14.3814C2.61478 13.6865 2.08707 12.8269 2.05616 11.6874C2.03995 11.0895 2.11968 10.5834 2.31902 10.1127C2.51469 9.65072 2.80547 9.27201 3.13135 8.90797C3.13887 8.89956 3.14658 8.89133 3.15447 8.88328L4.94156 7.05954C4.94577 7.05524 4.95004 7.05099 4.95436 7.04679C5.40269 6.61079 5.81259 6.3655 6.30489 6.19496C6.82038 6.01639 7.3704 5.96003 7.91625 6.02639C8.46179 6.09272 8.98927 6.27982 9.46426 6.57064C9.93912 6.86137 10.352 7.24986 10.6773 7.70829C10.917 8.04612 10.8374 8.51428 10.4996 8.75396C10.1617 8.99364 9.69359 8.91407 9.45391 8.57625C9.24346 8.27962 8.97909 8.0324 8.68102 7.84991C8.38308 7.66749 8.06006 7.55492 7.73523 7.51543C7.4107 7.47598 7.09082 7.51016 6.79588 7.61233C6.52249 7.70703 6.3011 7.83072 6.00633 8.11611L4.23796 9.92076C3.96281 10.2294 3.80044 10.4612 3.70024 10.6977C3.60239 10.9288 3.54384 11.2127 3.55561 11.6467C3.57317 12.294 3.85864 12.821 4.35977 13.3586C4.81036 13.8419 5.40059 14.119 5.99259 14.1521C6.57957 14.1849 7.13245 13.977 7.54149 13.5768L8.56182 12.542C8.85264 12.2471 9.3275 12.2437 9.62245 12.5345C9.9174 12.8254 9.92075 13.3002 9.62992 13.5952L8.60521 14.6344L8.59701 14.6426C7.88216 15.3455 6.91373 15.7059 5.90896 15.6497Z" fill="#2E6FF2"/>
</g>
</svg>
