<svg width="24" height="24" viewBox="0 0 24 24" fill="none" xmlns="http://www.w3.org/2000/svg">
<path fill-rule="evenodd" clip-rule="evenodd" d="M12 3.3C7.19512 3.3 3.3 7.19512 3.3 12C3.3 16.8049 7.19512 20.7 12 20.7C16.8049 20.7 20.7 16.8049 20.7 12C20.7 7.19512 16.8049 3.3 12 3.3ZM1.5 12C1.5 6.20101 6.20101 1.5 12 1.5C17.799 1.5 22.5 6.20101 22.5 12C22.5 17.799 17.799 22.5 12 22.5C6.20101 22.5 1.5 17.799 1.5 12Z" fill="#FF3440"/>
<path fill-rule="evenodd" clip-rule="evenodd" d="M11.9996 7.5C12.4967 7.5 12.8996 7.90294 12.8996 8.4V12.9C12.8996 13.3971 12.4967 13.8 11.9996 13.8C11.5026 13.8 11.0996 13.3971 11.0996 12.9V8.4C11.0996 7.90294 11.5026 7.5 11.9996 7.5Z" fill="#FF3440"/>
<path fill-rule="evenodd" clip-rule="evenodd" d="M11.9996 14.7002C12.4967 14.7002 12.8996 15.1031 12.8996 15.6002V15.6602C12.8996 16.1573 12.4967 16.5602 11.9996 16.5602C11.5026 16.5602 11.0996 16.1573 11.0996 15.6602V15.6002C11.0996 15.1031 11.5026 14.7002 11.9996 14.7002Z" fill="#FF3440"/>
</svg>
