<svg width="16" height="16" viewBox="0 0 16 16" fill="none" xmlns="http://www.w3.org/2000/svg">
<path fill-rule="evenodd" clip-rule="evenodd" d="M9.38949 2.95695C10.3985 1.94794 12.0344 1.94794 13.0434 2.95695C14.0524 3.96596 14.0524 5.60189 13.0434 6.6109L6.02988 13.6245C5.91736 13.737 5.76475 13.8002 5.60562 13.8002H2.8002C2.46882 13.8002 2.2002 13.5316 2.2002 13.2002V10.3948C2.2002 10.2356 2.26341 10.083 2.37593 9.97051L9.38949 2.95695ZM12.1949 3.80548C11.6545 3.2651 10.7784 3.2651 10.238 3.80548L9.43491 4.60859L11.3918 6.56548L12.1949 5.76238C12.7353 5.22199 12.7353 4.34586 12.1949 3.80548ZM10.5433 7.41401L8.58638 5.45712L3.4002 10.6433V12.6002H5.35709L10.5433 7.41401Z" fill="#D9DBE0"/>
</svg>
