<svg width="20" height="20" viewBox="0 0 20 20" fill="none" xmlns="http://www.w3.org/2000/svg">
<path fill-rule="evenodd" clip-rule="evenodd" d="M1.25 6.5C1.25 4.42893 2.92893 2.75 5 2.75H15C17.0711 2.75 18.75 4.42893 18.75 6.5V15C18.75 17.0711 17.0711 18.75 15 18.75H5C2.92893 18.75 1.25 17.0711 1.25 15V6.5ZM5 4.25C3.75736 4.25 2.75 5.25736 2.75 6.5V15C2.75 16.2426 3.75736 17.25 5 17.25H15C16.2426 17.25 17.25 16.2426 17.25 15V6.5C17.25 5.25736 16.2426 4.25 15 4.25H5Z" fill="#8D9299"/>
<path fill-rule="evenodd" clip-rule="evenodd" d="M7 1.25C7.41421 1.25 7.75 1.58579 7.75 2V5C7.75 5.41421 7.41421 5.75 7 5.75C6.58579 5.75 6.25 5.41421 6.25 5V2C6.25 1.58579 6.58579 1.25 7 1.25Z" fill="#8D9299"/>
<path fill-rule="evenodd" clip-rule="evenodd" d="M13 1.25C13.4142 1.25 13.75 1.58579 13.75 2V5C13.75 5.41421 13.4142 5.75 13 5.75C12.5858 5.75 12.25 5.41421 12.25 5V2C12.25 1.58579 12.5858 1.25 13 1.25Z" fill="#8D9299"/>
<path fill-rule="evenodd" clip-rule="evenodd" d="M1.25 13C1.25 12.5858 1.58579 12.25 2 12.25H18C18.4142 12.25 18.75 12.5858 18.75 13C18.75 13.4142 18.4142 13.75 18 13.75H2C1.58579 13.75 1.25 13.4142 1.25 13Z" fill="#8D9299"/>
<path d="M8 9C8 9.55229 7.55228 10 7 10C6.44772 10 6 9.55229 6 9C6 8.44772 6.44772 8 7 8C7.55228 8 8 8.44772 8 9Z" fill="#8D9299"/>
<path d="M14 9C14 9.55229 13.5523 10 13 10C12.4477 10 12 9.55229 12 9C12 8.44772 12.4477 8 13 8C13.5523 8 14 8.44772 14 9Z" fill="#8D9299"/>
<path d="M11 9C11 9.55229 10.5523 10 10 10C9.44771 10 9 9.55229 9 9C9 8.44772 9.44771 8 10 8C10.5523 8 11 8.44772 11 9Z" fill="#8D9299"/>
</svg>
