<svg width="20" height="20" viewBox="0 0 20 20" fill="none" xmlns="http://www.w3.org/2000/svg">
<path fill-rule="evenodd" clip-rule="evenodd" d="M1.75 3.5C1.75 2.5335 2.5335 1.75 3.5 1.75H16.5C17.4665 1.75 18.25 2.5335 18.25 3.5V16.5C18.25 17.4665 17.4665 18.25 16.5 18.25H3.5C2.5335 18.25 1.75 17.4665 1.75 16.5V3.5ZM3.5 3.25C3.36193 3.25 3.25 3.36193 3.25 3.5V16.5C3.25 16.6381 3.36193 16.75 3.5 16.75H16.5C16.6381 16.75 16.75 16.6381 16.75 16.5V3.5C16.75 3.36193 16.6381 3.25 16.5 3.25H3.5Z" fill="#D9DBE0"/>
<path fill-rule="evenodd" clip-rule="evenodd" d="M13.462 7.40924C13.7883 7.66441 13.846 8.13578 13.5908 8.46206L10.0716 12.9621C9.94016 13.1301 9.74344 13.2342 9.53062 13.2484C9.3178 13.2626 9.10901 13.1854 8.95649 13.0363L6.47572 10.6112C6.17952 10.3217 6.17414 9.84681 6.46369 9.55062C6.75324 9.25442 7.22809 9.24904 7.52428 9.53859L9.40603 11.3781L12.4092 7.53801C12.6644 7.21172 13.1357 7.15407 13.462 7.40924Z" fill="#D9DBE0"/>
</svg>
