<svg width="28" height="28" viewBox="0 0 28 28" fill="none" xmlns="http://www.w3.org/2000/svg">
<path d="M11.1307 15.8874C11.1307 15.3863 11.3096 14.9777 11.6675 14.6616C12.0254 14.3455 12.5051 14.0872 13.1066 13.8868C13.5254 13.7557 14.0812 13.6208 14.7741 13.482C15.1548 13.4127 15.448 13.351 15.6536 13.297C15.7069 13.2199 15.7335 13.1313 15.7335 13.031C15.7335 12.9462 15.7145 12.873 15.6764 12.8113C15.1891 12.4181 14.5457 12.0404 13.7462 11.678C12.9467 11.3157 11.7056 10.8647 10.0228 10.325C10.0076 10.1708 10 10.0475 10 9.95496C10 9.36904 10.1371 8.77927 10.4112 8.18564C10.6929 7.5843 11.0431 7.08318 11.4619 6.68229C11.8807 6.27369 12.2766 6.04626 12.6497 6C13.0609 6 13.6548 6.16961 14.4315 6.50883C15.2157 6.84804 15.9772 7.31832 16.7157 7.91966C17.4543 8.51329 18.0025 9.18401 18.3604 9.93183C18.5508 10.3327 18.703 10.7914 18.8173 11.308C18.9391 11.8245 19 12.341 19 12.8576C19 13.9755 18.6878 14.8967 18.0635 15.6214C17.4467 16.3384 16.4264 16.6969 15.0025 16.6969L14.7513 16.6853L14.2487 18.3968C13.8832 18.5125 13.533 18.5703 13.198 18.5703C12.7487 18.5703 12.3109 18.4739 11.8845 18.2812C11.6409 17.7569 11.4543 17.3214 11.3249 16.9744C11.1954 16.6198 11.1307 16.2575 11.1307 15.8874ZM13.4492 20.1315C14.4543 20.1315 15.1853 20.355 15.6421 20.8022C16.1066 21.2416 16.3388 21.7967 16.3388 22.4674C16.3388 22.9146 16.198 23.3348 15.9162 23.7279C15.6421 24.1134 15.2805 24.4218 14.8312 24.6531C14.3896 24.8844 13.9289 25 13.4492 25C12.9695 25 12.5051 24.8844 12.0558 24.6531C11.6142 24.4218 11.2525 24.1134 10.9708 23.7279C10.6967 23.3348 10.5596 22.9146 10.5596 22.4674C10.5596 21.7967 10.7881 21.2416 11.2449 20.8022C11.7094 20.355 12.4442 20.1315 13.4492 20.1315Z" fill="white"/>
</svg>
