<svg width="14" height="14" viewBox="0 0 14 14" fill="none" xmlns="http://www.w3.org/2000/svg">
<path d="M7 0C3.13401 0 0 3.13401 0 7C0 10.866 3.13401 14 7 14C10.866 14 14 10.866 14 7C14 3.13401 10.866 0 7 0Z" fill="#2E6FF2"/>
<path fill-rule="evenodd" clip-rule="evenodd" d="M9.76962 4.9272C10.0306 5.13134 10.0768 5.50843 9.87263 5.76945L7.05725 9.36945C6.95213 9.50387 6.79475 9.58716 6.6245 9.5985C6.45424 9.60985 6.28721 9.54816 6.16519 9.42888L4.18057 7.48877C3.94362 7.25713 3.93931 6.87726 4.17095 6.6403C4.40259 6.40334 4.78247 6.39903 5.01943 6.63068L6.52483 8.10231L8.92737 5.03021C9.13151 4.76918 9.5086 4.72306 9.76962 4.9272Z" fill="white"/>
</svg>
