<svg width="20" height="20" viewBox="0 0 20 20" fill="none" xmlns="http://www.w3.org/2000/svg">
<path fill-rule="evenodd" clip-rule="evenodd" d="M10 2.75C5.99594 2.75 2.75 5.99594 2.75 10C2.75 14.0041 5.99594 17.25 10 17.25C14.0041 17.25 17.25 14.0041 17.25 10C17.25 5.99594 14.0041 2.75 10 2.75ZM1.25 10C1.25 5.16751 5.16751 1.25 10 1.25C14.8325 1.25 18.75 5.16751 18.75 10C18.75 14.8325 14.8325 18.75 10 18.75C5.16751 18.75 1.25 14.8325 1.25 10Z" fill="#D9DBE0"/>
<path fill-rule="evenodd" clip-rule="evenodd" d="M13.462 7.40921C13.7883 7.66438 13.846 8.13575 13.5908 8.46203L10.0716 12.962C9.94016 13.13 9.74344 13.2342 9.53062 13.2483C9.3178 13.2625 9.10901 13.1854 8.95649 13.0363L6.47572 10.6112C6.17952 10.3216 6.17414 9.84678 6.46369 9.55059C6.75324 9.25439 7.22809 9.24901 7.52428 9.53856L9.40603 11.3781L12.4092 7.53798C12.6644 7.21169 13.1357 7.15404 13.462 7.40921Z" fill="#D9DBE0"/>
</svg>
